<svg width="22" height="24" viewBox="0 0 22 24" fill="none" xmlns="http://www.w3.org/2000/svg">
<path d="M21.7496 5.16523L11.1208 0.0340854C11.0266 -0.0113618 10.9168 -0.0113618 10.8227 0.0340854L0.193814 5.16523C0.0753034 5.22243 0 5.34245 0 5.47404V17.9354C0 18.067 0.0753034 18.187 0.193814 18.2442L10.8226 23.3754C10.8697 23.3981 10.9207 23.4095 10.9717 23.4095C11.0227 23.4095 11.0737 23.3981 11.1208 23.3754L21.7496 18.2442C21.8681 18.187 21.9434 18.067 21.9434 17.9354V5.47408C21.9434 5.3424 21.8681 5.22248 21.7496 5.16523ZM10.9717 0.723704L20.8118 5.47404L17.9593 6.85108C17.9413 6.83732 17.9222 6.82461 17.9013 6.8145L8.12806 2.09649L10.9717 0.723704ZM7.35363 2.48421L17.1794 7.22764L15.1669 8.19918L5.34526 3.45767L7.35363 2.48421ZM17.4093 7.87817V11.4694L15.5295 12.3769V8.78565L17.4093 7.87817ZM21.2576 17.7202L11.3146 22.5202V10.8204L13.6863 9.67544C13.8569 9.59309 13.9284 9.38812 13.846 9.21754C13.7637 9.04704 13.5587 8.97544 13.3881 9.05783L10.9717 10.2244L10.0209 9.76537C9.8503 9.68293 9.64533 9.75454 9.56298 9.92508C9.48064 10.0956 9.55215 10.3006 9.72269 10.383L10.6288 10.8204V22.5202L0.685823 17.7201V6.02036L8.25731 9.67557C8.30537 9.6988 8.35616 9.70977 8.40614 9.70977C8.53361 9.70977 8.65605 9.63836 8.71517 9.51587C8.79751 9.34533 8.726 9.14031 8.55546 9.05797L1.13165 5.47404L4.53814 3.82952L14.8389 8.80234C14.8404 8.80444 14.8421 8.80632 14.8437 8.80837V12.9233C14.8437 13.0413 14.9044 13.151 15.0043 13.2137C15.0598 13.2486 15.1231 13.2662 15.1866 13.2662C15.2375 13.2662 15.2885 13.2549 15.3357 13.2321L17.9013 11.9935C18.0198 11.9363 18.0951 11.8163 18.0951 11.6847V7.54714L21.2576 6.02041V17.7202Z" fill="black"/>
</svg>
